<svg width="18" height="17" viewBox="0 0 18 17" fill="none" xmlns="http://www.w3.org/2000/svg">
<path d="M16.4998 6.33333H4.83317V3.83333C4.83317 2.91417 5.58067 2.16667 6.49984 2.16667C7.419 2.16667 8.1665 2.91417 8.1665 3.83333H9.83317C9.83317 1.995 8.33817 0.5 6.49984 0.5C4.6615 0.5 3.1665 1.995 3.1665 3.83333V6.33333H1.49984C1.27882 6.33333 1.06686 6.42113 0.910582 6.57741C0.754301 6.73369 0.666504 6.94565 0.666504 7.16667V8.83333C0.666504 11.005 2.0615 12.8525 3.99984 13.5417V16.3333H5.6665V13.8333H12.3332V16.3333H13.9998V13.5417C15.9382 12.8525 17.3332 11.005 17.3332 8.83333V7.16667C17.3332 6.94565 17.2454 6.73369 17.0891 6.57741C16.9328 6.42113 16.7209 6.33333 16.4998 6.33333ZM15.6665 8.83333C15.6665 10.6717 14.1715 12.1667 12.3332 12.1667H5.6665C3.82817 12.1667 2.33317 10.6717 2.33317 8.83333V8H15.6665V8.83333Z" fill="#7065F0"/>
</svg>
