<svg width="56" height="56" viewBox="0 0 56 56" fill="none" xmlns="http://www.w3.org/2000/svg">
<circle cx="28" cy="28" r="27.5" stroke="#E0DEF7"/>
<circle cx="28" cy="28" r="24.5" fill="#E0DEF7"/>
<rect x="29.4438" y="21.875" width="1.75" height="8.75" fill="#7065F0"/>
<rect x="19.25" y="28" width="1.75" height="8.75" fill="#7065F0"/>
<rect x="34.125" y="21.875" width="1.75" height="8.75" fill="#7065F0"/>
<path d="M19.8333 23.3335C17.8966 23.3335 16.3333 24.8968 16.3333 26.8335V36.1668C16.3333 38.1035 17.8966 39.6668 19.8333 39.6668H21.5833C22.8666 39.6668 23.9166 38.6168 23.9166 37.3335V25.6668C23.9166 24.3835 22.8666 23.3335 21.5833 23.3335H19.8333ZM20.9999 33.8335C20.9999 34.3118 20.6033 34.7085 20.1249 34.7085C19.6466 34.7085 19.2499 34.3118 19.2499 33.8335V29.1668C19.2499 28.6885 19.6466 28.2918 20.1249 28.2918C20.6033 28.2918 20.9999 28.6885 20.9999 29.1668V33.8335Z" fill="white"/>
<path d="M36.1667 16.3335H29.1667C27.2301 16.3335 25.6667 17.8968 25.6667 19.8335V36.1668C25.6667 38.1035 27.2301 39.6668 29.1667 39.6668H29.7501C30.0767 39.6668 30.3334 39.4102 30.3334 39.0835V35.0002C30.3334 34.3585 30.8584 33.8335 31.5001 33.8335H33.8334C34.4751 33.8335 35.0001 34.3585 35.0001 35.0002V39.0835C35.0001 39.4102 35.2567 39.6668 35.5834 39.6668H36.1667C38.1034 39.6668 39.6667 38.1035 39.6667 36.1668V19.8335C39.6667 17.8968 38.1034 16.3335 36.1667 16.3335ZM31.2084 29.1668C31.2084 29.6452 30.8117 30.0418 30.3334 30.0418C29.8551 30.0418 29.4584 29.6452 29.4584 29.1668V23.3335C29.4584 22.8552 29.8551 22.4585 30.3334 22.4585C30.8117 22.4585 31.2084 22.8552 31.2084 23.3335V29.1668ZM35.8751 29.1668C35.8751 29.6452 35.4784 30.0418 35.0001 30.0418C34.5217 30.0418 34.1251 29.6452 34.1251 29.1668V23.3335C34.1251 22.8552 34.5217 22.4585 35.0001 22.4585C35.4784 22.4585 35.8751 22.8552 35.8751 23.3335V29.1668Z" fill="white"/>
<rect x="35" y="35" width="21" height="21" rx="10.5" fill="#7065F0"/>
<path d="M45.2084 50.7498C48.269 50.7498 50.7501 48.2687 50.7501 45.2082C50.7501 42.1476 48.269 39.6665 45.2084 39.6665C42.1478 39.6665 39.6667 42.1476 39.6667 45.2082C39.6667 48.2687 42.1478 50.7498 45.2084 50.7498Z" stroke="white" stroke-width="2" stroke-linecap="round" stroke-linejoin="round"/>
<path d="M51.3334 51.3332L50.1667 50.1665" stroke="white" stroke-width="2" stroke-linecap="round" stroke-linejoin="round"/>
</svg>
