<svg width="327" height="268" viewBox="0 0 327 268" fill="none" xmlns="http://www.w3.org/2000/svg">
<path d="M303.921 400L492 291.39L180.079 111.268L-8 219.877L303.921 400Z" fill="#2516DF"/>
<path d="M484.964 291.391L180.082 115.333L-0.960693 219.875L303.923 395.937L484.964 291.391Z" fill="#A9A2F6"/>
<path d="M245.43 360.605L301.697 328.112L360.183 361.885L303.913 394.378L245.43 360.605V360.605ZM180.721 258.254L232.615 288.22L176.348 320.712L124.453 290.745L180.721 258.254ZM354.662 217.743L300.044 249.281L248.151 219.315L302.768 187.776L354.662 217.743V217.743ZM369.126 289.175L423.743 257.635L482.227 291.407L427.609 322.947L369.126 289.175V289.175ZM364.996 291.56L423.481 325.331L364.31 359.5L305.827 325.728L364.996 291.56V291.56ZM304.173 251.667L358.789 220.126L419.613 255.251L364.996 286.79L304.173 251.667V251.667ZM236.745 285.836L184.85 255.869L244.022 221.7L295.915 251.667L236.745 285.836V285.836ZM297.569 325.728L241.3 358.221L180.477 323.098L236.745 290.604L297.569 325.728V325.728ZM240.874 288.22L300.044 254.051L360.868 289.175L301.697 323.343L240.874 288.22ZM358.815 215.37L358.803 215.35L358.79 215.358L302.768 183.005L116.194 290.745L303.913 399.147L490.487 291.407L358.815 215.37" fill="#F0EFFB"/>
<path d="M44.1672 159.665V163.396C44.2845 164.428 45.0594 165.507 46.5369 166.351C48.5548 167.524 51.2994 167.971 53.622 167.619C54.6062 167.478 55.5215 167.197 56.2723 166.75L98.3572 142.442C99.4598 141.833 99.976 140.989 100.023 140.119L100.046 136.483L97.3718 136.694C94.5099 135.17 90.358 135.028 87.9412 136.436L52.2837 157.014L46.3966 160.416L46.2794 159.665H44.1672" fill="#C7784C"/>
<path d="M44.1672 159.665V163.396C44.2845 164.428 45.0594 165.507 46.537 166.351C48.5548 167.524 51.2994 167.971 53.622 167.619V157.014H52.2837L46.3967 160.416L46.2794 159.665H44.1672" fill="#DFCFB5"/>
<path d="M56.2717 163.24L98.3664 138.932C100.861 137.491 100.548 134.975 97.6671 133.312V133.311C94.7866 131.648 90.4297 131.468 87.9351 132.909L45.8404 157.217C43.3457 158.657 43.6592 161.173 46.5397 162.837C49.4202 164.5 53.777 164.68 56.2717 163.24" fill="white"/>
<path d="M245.838 154.062L245.825 154.039L245.811 154.046L180.691 116.441L0.727539 220.084L226.921 350.653L406.883 247.01L245.838 154.062Z" fill="#E8E6F9"/>
<path d="M406.884 213.586L357.745 185.21V152.668L362.956 154.555L357.741 151.564V148.313L322.878 131.235L322.738 131.481L253.776 91.9154L250.622 90.7731V88.506L212.316 28.5848L198.133 36.7807L166.686 45.175L40.5518 118.062L43.9639 117.151L43.8641 117.209V139.796L0.728027 164.705V103.65L180.7 5.06745e-05L406.884 130.562V213.586Z" fill="url(#paint0_linear_601_3633)"/>
<path d="M406.884 241.816L357.745 213.439V184.788L406.884 213.164V241.816ZM0.728516 214.414V164.283L43.8646 139.374V170.224V189.954L0.728516 214.414Z" fill="url(#paint1_linear_601_3633)"/>
<path d="M122.436 162.583L43.864 117.21L169.997 44.3232L248.569 89.6966L122.436 162.583Z" fill="#A8A2F6"/>
<path d="M122.436 256.664V162.583L248.569 89.6971V183.778L122.436 256.664Z" fill="#7065F0"/>
<path d="M157.39 232.121L129.86 248.019V185.5L157.39 169.602V232.121Z" fill="#F7F7FD"/>
<path d="M43.864 211.291V117.211L122.436 162.583V256.664L43.864 211.291Z" fill="#A8A2F6"/>
<path d="M54.5098 139.607V200.096L65.0288 206.157V145.667L54.5098 139.607Z" fill="#F7F7FD"/>
<path d="M69.2249 148.099V208.588L79.7428 214.649V154.159L69.2249 148.099" fill="#F7F7FD"/>
<path d="M83.9395 156.59V217.08L94.4585 223.141V162.652L83.9395 156.59Z" fill="#F7F7FD"/>
<path d="M98.6543 165.081V225.57L109.172 231.632V171.143L98.6543 165.081Z" fill="#F7F7FD"/>
<path d="M272.904 201.3L163.724 138.661L248.564 89.6911L357.744 152.331L272.904 201.3Z" fill="#7065F0"/>
<path d="M272.904 295.458V201.302L357.744 152.333V246.488L272.904 295.458Z" fill="#7065F0"/>
<path d="M163.724 232.818V138.663L272.904 201.302V295.458L163.724 232.818Z" fill="#A8A2F6"/>
<path d="M265.377 284.491L171.249 230.137V167.906L265.377 222.261V284.491" fill="#F7F7FD"/>
<path d="M143.491 162.177L139.194 157.304L158.749 146.004L163.723 148.857V150.968L143.491 162.177" fill="#5245ED"/>
<path d="M163.724 150.968V148.858L163.732 148.863L163.734 150.962L163.724 150.968" fill="#013BA1"/>
<path d="M40.551 118.062L86.1817 105.882L212.316 32.9945L166.685 45.1754L40.551 118.062Z" fill="#5598E9"/>
<path d="M124.488 165.802L86.1814 105.881L212.315 32.9935L250.621 92.9147L124.488 165.802Z" fill="#3F461D"/>
<path d="M250.622 88.5054V92.9147L124.49 165.802V161.391L250.622 88.5054Z" fill="#7065F0"/>
<path d="M97.4423 138.411L83.1068 118.087L55.8704 124.144L43.864 117.211L46.0869 116.586L86.1823 105.883L105.475 136.062L97.4423 138.411Z" fill="#5245ED"/>
<path d="M43.8673 126.812L43.864 117.21L55.8704 124.143L43.8673 126.812" fill="#5245ED"/>
<path d="M46.0864 116.586L86.0065 105.37L86.1819 105.645V105.883L46.0864 116.586" fill="#073CAE"/>
<path d="M40.551 113.653L86.1817 101.473L212.316 28.586L166.685 40.7658L40.551 113.653" fill="#CBC7FA"/>
<path d="M124.488 161.393L86.1814 101.472L212.315 28.5854L250.621 88.5066L124.488 161.393" fill="#A8A2F6"/>
<path d="M150.158 128.656L128.539 120.928L128.542 106.73L146.521 113.37L154.665 122.571L150.158 128.656" fill="#5245ED"/>
<path d="M128.54 105.631L120.724 101.117L128.492 96.6314L136.308 101.146L128.54 105.631" fill="#A8A2F6"/>
<path d="M128.541 105.589L120.145 100.739L128.489 95.9211L136.886 100.77L128.541 105.589" fill="#CBC7FA"/>
<path d="M128.542 107.047L136.886 102.228V100.77L128.542 105.589V107.047Z" fill="#2516DF"/>
<path d="M120.146 102.198L128.541 107.047V105.589L120.146 100.739V102.198Z" fill="#A8A2F6"/>
<path d="M134.024 101.136L128.53 104.316L128.512 104.298L123.017 101.119L128.494 97.9568L128.512 97.9754L134.024 101.136" fill="#2516DF"/>
<path d="M134.024 101.136L128.529 104.316L128.512 104.298V97.9755L134.024 101.136" fill="#A8A2F6"/>
<path d="M128.539 120.927L136.307 116.442V101.146L128.539 105.631V120.927Z" fill="#2516DF"/>
<path d="M120.725 108.783L128.54 120.927V105.631L120.725 101.117V108.783Z" fill="#A8A2F6"/>
<path d="M128.544 97.5625L127.44 96.9246L128.536 96.2922L129.64 96.929L128.544 97.5625Z" fill="#A8A2F6"/>
<path d="M128.544 105.218L129.64 104.585V96.9287L128.544 97.5624V105.218Z" fill="#2516DF"/>
<path d="M127.44 104.581L128.544 105.218V97.5624L127.44 96.9243V104.581Z" fill="#A8A2F6"/>
<path d="M128.544 97.5625L127.8 97.1328L128.531 96.713L129.282 97.1361L128.544 97.5625Z" fill="#096EA8"/>
<path d="M128.552 99.9111L128.544 99.9067V97.5633L129.282 97.1369L129.637 97.3364V99.2875L128.552 99.9111" fill="#093B7D"/>
<path d="M128.544 99.9062L127.444 99.2661V97.336L127.799 97.1332L128.544 97.5629V99.9062Z" fill="#096EA8"/>
<path d="M135.215 93.7056L134.111 93.0687L135.207 92.4352L136.312 93.072L135.215 93.7056Z" fill="#A8A2F6"/>
<path d="M135.214 101.361L136.311 100.729V93.0722L135.214 93.7059V101.361Z" fill="#2516DF"/>
<path d="M134.111 100.724L135.215 101.361V93.7059L134.111 93.069V100.724Z" fill="#A8A2F6"/>
<path d="M135.215 93.7056L134.465 93.2737L134.945 92.992L135.691 93.4305L135.215 93.7056" fill="#096EA8"/>
<path d="M135.214 96.0601V93.7068L135.69 93.4317L136.311 93.7967V95.4265L135.214 96.0601Z" fill="#093B7D"/>
<path d="M135.21 96.061L134.121 95.5547V93.4754L134.465 93.2737L135.215 93.7056V96.0588L135.21 96.061Z" fill="#096EA8"/>
<path d="M121.828 93.686L120.724 93.0492L121.821 92.4157L122.925 93.0536L121.828 93.686Z" fill="#A8A2F6"/>
<path d="M121.828 101.343L122.924 100.709V93.0537L121.828 93.6863V101.343Z" fill="#2516DF"/>
<path d="M120.724 100.705L121.828 101.343V93.6862L120.724 93.0493V100.705Z" fill="#A8A2F6"/>
<path d="M121.828 93.686L121.337 93.4032L122.077 92.9714L122.564 93.2618L121.828 93.686Z" fill="#096EA8"/>
<path d="M121.828 96.0381V93.687L122.564 93.2628L122.921 93.4766V95.4276L121.828 96.0381" fill="#093B7D"/>
<path d="M121.825 96.0391L120.73 95.4055V93.757L121.337 93.4041L121.828 93.6869V96.038L121.825 96.0391Z" fill="#096EA8"/>
<path d="M128.545 97.5503L119.31 92.2168L128.487 86.9173L137.723 92.2497L128.545 97.5503" fill="white"/>
<path d="M128.546 99.1558L137.723 93.8552V92.2513L128.546 97.5519V99.1558Z" fill="#A8A2F6"/>
<path d="M119.31 93.8223L128.545 99.1558V97.5519L119.31 92.2184V93.8223Z" fill="#CBC7FA"/>
<path d="M267.868 208.609L158.688 145.969L192.841 114.176L302.021 176.816L267.868 208.609Z" fill="#5598E9"/>
<path d="M253.775 91.9162L213.696 77.4024L322.877 140.042L362.955 154.556L253.775 91.9162" fill="#DDB79B"/>
<path d="M322.878 140.042L302.021 176.816L192.841 114.176L213.697 77.4024L322.878 140.042" fill="#433E44"/>
<path d="M272.907 213.585L272.904 203.922V213.494L272.907 213.491V213.585Z" fill="#02288E"/>
<path d="M272.907 213.585L163.733 150.962V148.864L267.868 208.609L272.903 203.922V213.583" fill="#5245ED"/>
<path d="M163.733 141.272V138.715L163.909 138.614L165.568 139.566L163.733 141.272Z" fill="#02288E"/>
<path d="M163.733 138.715V138.513L163.909 138.614L163.733 138.715Z" fill="#0852BE"/>
<path d="M267.868 208.609L163.733 148.864V141.272L165.568 139.565L272.907 201.135L272.903 203.922L267.868 208.609" fill="#073CAE"/>
<path d="M280.314 197.025L302.021 176.816L322.879 140.042L321.02 138.976L322.879 140.042L357.386 152.539L347.124 158.462L322.879 149.693L303.684 183.534L280.314 197.025" fill="#5245ED"/>
<path d="M272.907 213.491V203.919L280.313 197.026L303.684 183.535L302.021 186.468L272.907 213.491ZM357.741 162.303L347.123 158.463L357.386 152.54L357.741 152.668V162.303" fill="#5245ED"/>
<path d="M272.907 203.919V201.136L272.904 195.037L296.158 173.452L302.021 176.817L280.313 197.026L272.907 203.919" fill="#033093"/>
<path d="M357.74 151.564L322.737 131.481L322.878 131.236L357.74 148.314V151.564" fill="url(#paint2_linear_601_3633)"/>
<path d="M357.741 152.669L357.386 152.541L322.878 140.044L321.019 138.977L322.878 135.701L320.968 134.604L322.738 131.483L357.741 151.566V152.669" fill="#073962"/>
<path d="M302.021 176.816L296.158 173.452L299.05 170.767L302.021 172.472L321.02 138.976L322.879 140.042L302.021 176.816" fill="#02132B"/>
<path d="M272.904 213.495V203.923L272.907 203.92V213.492L272.904 213.495Z" fill="#000D5A"/>
<path d="M272.904 203.924V201.136L272.907 201.138V203.921L272.904 203.924Z" fill="#00136E"/>
<path d="M267.869 204.267L158.689 141.626L192.841 109.834L302.021 172.474L267.869 204.267" fill="#A8A2F6"/>
<path d="M253.775 87.5709L213.696 73.0582L322.877 135.698L362.955 150.211L253.775 87.5709" fill="#A8A2F6"/>
<path d="M322.878 135.699L302.021 172.472L192.841 109.833L213.697 73.0588L322.878 135.699" fill="#CBC7FA"/>
<path d="M86.1817 101.472V105.882L40.551 118.062V113.652L86.1817 101.472Z" fill="#A8A2F6"/>
<path d="M86.1814 101.471V105.881L124.488 165.802V161.391L86.1814 101.471" fill="#A8A2F6"/>
<path d="M362.956 154.556V150.212L322.878 135.699L302.021 172.473L267.868 204.265V208.609L302.021 176.816L322.878 140.042L362.956 154.556" fill="#2516DF"/>
<path d="M267.868 208.609V204.265L158.688 141.624V145.969L267.868 208.609" fill="#A8A2F6"/>
<path d="M223.376 122.148V99.6783L217.213 96.1165L215.93 84.0561H223.376L246.28 96.8115L245.891 100.114L240.013 109.677L223.376 122.148" fill="#5245ED"/>
<path d="M230.888 96.2459V108.988L223.376 122.148V99.6783L230.888 96.2459Z" fill="#2516DF"/>
<path d="M223.376 122.148L208.483 113.541V91.0724L223.376 99.6783V122.148Z" fill="#A8A2F6"/>
<path d="M221.291 99.1709L204.548 89.4939L216.208 82.971L232.952 92.6479L221.291 99.1709Z" fill="#CBC7FA"/>
<path d="M221.291 98.4268L204.548 88.7487L216.208 82.2257L232.952 91.9027L221.291 98.4268Z" fill="white"/>
<path d="M222.411 100.974L230.89 96.2453L232.952 92.6484L221.291 99.1713L222.411 100.974Z" fill="#2516DF"/>
<path d="M204.548 89.4943L205.668 91.2955L222.411 100.974L221.291 99.1713L204.548 89.4943Z" fill="#A8A2F6"/>
<path d="M221.291 99.1709V98.4254L232.952 91.9014V92.6479L221.291 99.1709" fill="#A8A2F6"/>
<path d="M221.291 99.1709V98.4254L204.548 88.7473V89.4939L221.291 99.1709" fill="#CBC7FA"/>
<path d="M209.807 113.167V95.3387L222.055 102.406V120.234L209.807 113.167Z" fill="#A8A2F6"/>
<path d="M211.242 97.8312V112.34L220.619 117.743V103.235L211.242 97.8312Z" fill="white"/>
<path d="M212.858 98.7642V111.652L220.619 116.122V117.743L211.242 112.341V97.8312L212.858 98.7642" fill="#2516DF"/>
<path d="M212.858 111.652L211.242 112.341L220.619 117.743V116.122L212.858 111.652" fill="#CBC7FA"/>
<path d="M214.053 112.34H211.242L212.858 111.652V98.7639L214.085 99.4688L214.053 112.34" fill="#0C59BE"/>
<path d="M254.833 140.162L249.493 121.88L247.387 102.07H254.833L277.737 114.826L277.348 118.128L271.469 127.691L254.833 140.162" fill="#5245ED"/>
<path d="M262.345 114.259V127.002L254.833 140.162V117.694L262.345 114.259Z" fill="#2516DF"/>
<path d="M254.833 140.162L239.94 131.555V109.087L254.833 117.694V140.162Z" fill="#A8A2F6"/>
<path d="M252.748 117.188L236.003 107.511L247.665 100.988L264.408 110.666L252.748 117.188Z" fill="#CBC7FA"/>
<path d="M252.748 116.439L236.003 106.762L247.665 100.24L264.408 109.917L252.748 116.439Z" fill="white"/>
<path d="M253.867 118.989L262.345 114.26L264.408 110.665L252.748 117.187L253.867 118.989Z" fill="#2516DF"/>
<path d="M236.003 107.51L237.123 109.311L253.867 118.989L252.748 117.187L236.003 107.51Z" fill="#A8A2F6"/>
<path d="M252.748 117.188V116.441L264.408 109.918V110.666L252.748 117.188Z" fill="#A8A2F6"/>
<path d="M252.748 117.188V116.441L236.003 106.764V107.511L252.748 117.188Z" fill="#CBC7FA"/>
<path d="M241.262 131.183V113.355L253.511 120.423V138.251L241.262 131.183Z" fill="#A8A2F6"/>
<path d="M242.698 115.846V130.355L252.075 135.758V121.25L242.698 115.846Z" fill="white"/>
<path d="M244.314 116.779V129.668L252.075 134.137V135.758L242.698 130.356V115.846L244.314 116.779" fill="#2516DF"/>
<path d="M244.314 129.668L242.698 130.356L252.075 135.758V134.137L244.314 129.668" fill="#CBC7FA"/>
<path d="M242.698 130.355H245.51L245.541 117.484L244.314 116.779V129.668L242.698 130.355" fill="#2516DF"/>
<path d="M286.29 158.178L280.949 139.896L278.843 120.086H286.29L309.193 132.842L308.804 136.144L302.924 145.707L286.29 158.178" fill="#5245ED"/>
<path d="M293.801 132.276V145.019L286.29 158.178V135.71L293.801 132.276Z" fill="#2516DF"/>
<path d="M286.291 158.178L271.397 149.571V127.103L286.291 135.71V158.178Z" fill="#A8A2F6"/>
<path d="M284.203 135.202L267.459 125.525L279.121 119.002L295.864 128.68L284.203 135.202Z" fill="#CBC7FA"/>
<path d="M284.203 134.457L267.459 124.78L279.121 118.257L295.864 127.935L284.203 134.457Z" fill="white"/>
<path d="M285.323 137.005L293.801 132.277L295.864 128.681L284.203 135.203L285.323 137.005" fill="#2516DF"/>
<path d="M267.459 125.526L268.58 127.327L285.323 137.005L284.203 135.203L267.459 125.526" fill="#A8A2F6"/>
<path d="M284.203 135.202V134.456L295.864 127.934V128.68L284.203 135.202Z" fill="#A8A2F6"/>
<path d="M284.203 135.202V134.456L267.459 124.779V125.525L284.203 135.202" fill="#CBC7FA"/>
<path d="M272.718 149.198V131.369L284.967 138.437V156.265L272.718 149.198" fill="#A8A2F6"/>
<path d="M274.154 133.863V148.37L283.531 153.774V139.266L274.154 133.863" fill="white"/>
<path d="M275.77 134.795V147.684L283.53 152.153V153.774L274.154 148.371V133.862L275.77 134.795" fill="#2516DF"/>
<path d="M275.77 147.684L274.154 148.371L283.53 153.774V152.153L275.77 147.684Z" fill="#CBC7FA"/>
<path d="M274.154 148.371H276.966L276.996 135.499L275.77 134.794V147.683L274.154 148.371" fill="#2516DF"/>
<defs>
<linearGradient id="paint0_linear_601_3633" x1="203.807" y1="80.1095" x2="203.807" y2="189.753" gradientUnits="userSpaceOnUse">
<stop stop-color="#F7F7FD"/>
<stop offset="1" stop-color="#E8E6F9"/>
</linearGradient>
<linearGradient id="paint1_linear_601_3633" x1="203.807" y1="80.1114" x2="203.807" y2="189.755" gradientUnits="userSpaceOnUse">
<stop stop-color="#FFFCF7"/>
<stop offset="1" stop-color="#E8E6F9"/>
</linearGradient>
<linearGradient id="paint2_linear_601_3633" x1="203.806" y1="80.1104" x2="203.806" y2="189.754" gradientUnits="userSpaceOnUse">
<stop stop-color="#0850A1"/>
<stop offset="1" stop-color="#074CA1"/>
</linearGradient>
</defs>
</svg>
