<svg width="56" height="56" viewBox="0 0 56 56" fill="none" xmlns="http://www.w3.org/2000/svg">
<circle cx="28" cy="28" r="27.5" stroke="#E0DEF7"/>
<circle cx="28" cy="28" r="24.5" fill="#E0DEF7"/>
<path d="M31.4999 39.6668H24.4999C18.6666 39.6668 16.3333 37.3335 16.3333 31.5002V24.5002C16.3333 18.6668 18.6666 16.3335 24.4999 16.3335H31.4999C37.3333 16.3335 39.6666 18.6668 39.6666 24.5002V31.5002C39.6666 37.3335 37.3333 39.6668 31.4999 39.6668Z" fill="white"/>
<path d="M24.1172 30.718C24.1172 32.223 25.2722 33.4363 26.7072 33.4363H29.6355C30.8839 33.4363 31.8989 32.3747 31.8989 31.068C31.8989 29.6447 31.2805 29.143 30.3589 28.8163L25.6572 27.183C24.7355 26.8563 24.1172 26.3547 24.1172 24.9313C24.1172 23.6247 25.1322 22.563 26.3805 22.563H29.3089C30.7439 22.563 31.8989 23.7763 31.8989 25.2813" stroke="#7065F0" stroke-width="2" stroke-linecap="round" stroke-linejoin="round"/>
<path d="M28 21V35" stroke="#7065F0" stroke-width="2" stroke-linecap="round" stroke-linejoin="round"/>
<rect x="35" y="35" width="21" height="21" rx="10.5" fill="#7065F0"/>
<g clip-path="url(#clip0_601_3845)">
<path d="M41.4167 45.5002L44.3334 48.4168L50.1667 42.5835" stroke="white" stroke-width="2" stroke-linecap="round" stroke-linejoin="round"/>
</g>
<defs>
<clipPath id="clip0_601_3845">
<rect width="14" height="14" fill="white" transform="translate(38.5 38.5)"/>
</clipPath>
</defs>
</svg>
