<svg width="56" height="56" viewBox="0 0 56 56" fill="none" xmlns="http://www.w3.org/2000/svg">
<circle cx="28" cy="28" r="27.5" stroke="#E0DEF7"/>
<circle cx="28" cy="28" r="24.5" fill="#E0DEF7"/>
<g clip-path="url(#clip0_601_3815)">
<path d="M38.1645 23.1956L30.3872 17.152C29.7047 16.6215 28.8646 16.3335 27.9999 16.3335C27.1352 16.3335 26.2951 16.6215 25.6126 17.152L17.8339 23.1956C17.3664 23.5588 16.9882 24.0239 16.7281 24.5555C16.468 25.087 16.333 25.6709 16.3333 26.2625V36.7529C16.3333 37.5257 16.6405 38.2669 17.1875 38.8133C17.7345 39.3598 18.4764 39.6668 19.2499 39.6668H36.7499C37.5235 39.6668 38.2653 39.3598 38.8123 38.8133C39.3593 38.2669 39.6666 37.5257 39.6666 36.7529V26.2625C39.6666 25.0634 39.1124 23.9314 38.1645 23.1956Z" fill="white" stroke="white" stroke-width="2" stroke-linecap="round" stroke-linejoin="round"/>
</g>
<path d="M23.625 32.375L32.375 23.625" stroke="#7065F0" stroke-width="2" stroke-linecap="round" stroke-linejoin="round"/>
<path d="M24.3542 25.0833C24.7569 25.0833 25.0833 24.7569 25.0833 24.3542C25.0833 23.9515 24.7569 23.625 24.3542 23.625C23.9515 23.625 23.625 23.9515 23.625 24.3542C23.625 24.7569 23.9515 25.0833 24.3542 25.0833Z" fill="#7065F0" stroke="#7065F0" stroke-width="2" stroke-linecap="round" stroke-linejoin="round"/>
<path d="M31.6457 32.3748C32.0484 32.3748 32.3748 32.0484 32.3748 31.6457C32.3748 31.243 32.0484 30.9165 31.6457 30.9165C31.243 30.9165 30.9165 31.243 30.9165 31.6457C30.9165 32.0484 31.243 32.3748 31.6457 32.3748Z" fill="#7065F0" stroke="#7065F0" stroke-width="2" stroke-linecap="round" stroke-linejoin="round"/>
<rect x="35" y="35" width="21" height="21" rx="10.5" fill="#7065F0"/>
<path d="M39.8999 46.2001C39.8999 46.0144 39.9737 45.8364 40.1049 45.7051C40.2362 45.5738 40.4143 45.5001 40.5999 45.5001H41.9999C42.1856 45.5001 42.3636 45.5738 42.4949 45.7051C42.6262 45.8364 42.6999 46.0144 42.6999 46.2001V49.7001C42.6999 49.8858 42.6262 50.0638 42.4949 50.1951C42.3636 50.3264 42.1856 50.4001 41.9999 50.4001H40.5999C40.4143 50.4001 40.2362 50.3264 40.1049 50.1951C39.9737 50.0638 39.8999 49.8858 39.8999 49.7001V46.2001ZM44.0999 43.4001C44.0999 43.2144 44.1737 43.0364 44.3049 42.9051C44.4362 42.7738 44.6143 42.7001 44.7999 42.7001H46.1999C46.3856 42.7001 46.5636 42.7738 46.6949 42.9051C46.8262 43.0364 46.8999 43.2144 46.8999 43.4001V49.7001C46.8999 49.8858 46.8262 50.0638 46.6949 50.1951C46.5636 50.3264 46.3856 50.4001 46.1999 50.4001H44.7999C44.6143 50.4001 44.4362 50.3264 44.3049 50.1951C44.1737 50.0638 44.0999 49.8858 44.0999 49.7001V43.4001ZM48.2999 41.3001C48.2999 41.1144 48.3737 40.9364 48.5049 40.8051C48.6362 40.6738 48.8143 40.6001 48.9999 40.6001H50.3999C50.5856 40.6001 50.7636 40.6738 50.8949 40.8051C51.0262 40.9364 51.0999 41.1144 51.0999 41.3001V49.7001C51.0999 49.8858 51.0262 50.0638 50.8949 50.1951C50.7636 50.3264 50.5856 50.4001 50.3999 50.4001H48.9999C48.8143 50.4001 48.6362 50.3264 48.5049 50.1951C48.3737 50.0638 48.2999 49.8858 48.2999 49.7001V41.3001Z" fill="white"/>
<defs>
<clipPath id="clip0_601_3815">
<rect width="28" height="28" fill="white" transform="translate(14 14)"/>
</clipPath>
</defs>
</svg>
