<svg width="20" height="20" viewBox="0 0 20 20" fill="none" xmlns="http://www.w3.org/2000/svg">
<g clip-path="url(#clip0_601_3127)">
<path d="M17.2605 6.56848L11.7053 2.25163C11.2178 1.87272 10.6177 1.66699 10.0001 1.66699C9.38242 1.66699 8.78238 1.87272 8.29487 2.25163L2.73862 6.56848C2.40471 6.82791 2.13455 7.16015 1.94879 7.53982C1.76302 7.91949 1.66655 8.33656 1.66675 8.75916V16.2522C1.66675 16.8043 1.88624 17.3337 2.27694 17.724C2.66764 18.1144 3.19755 18.3337 3.75008 18.3337H16.2501C16.8026 18.3337 17.3325 18.1144 17.7232 17.724C18.1139 17.3337 18.3334 16.8043 18.3334 16.2522V8.75916C18.3334 7.90266 17.9376 7.09403 17.2605 6.56848Z" stroke="#100A55" stroke-width="2" stroke-linecap="round" stroke-linejoin="round"/>
</g>
<defs>
<clipPath id="clip0_601_3127">
<rect width="20" height="20" fill="white"/>
</clipPath>
</defs>
</svg>
